<?xml version="1.0" standalone="no"?>
<!DOCTYPE svg PUBLIC "-//W3C//DTD SVG 20010904//EN"
 "http://www.w3.org/TR/2001/REC-SVG-20010904/DTD/svg10.dtd">
<svg version="1.0" xmlns="http://www.w3.org/2000/svg"
 width="1056.000000pt" height="1056.000000pt" viewBox="0 0 1056.000000 1056.000000"
 preserveAspectRatio="xMidYMid meet">
<metadata>
Created by potrace 1.11, written by Peter Selinger 2001-2013
</metadata>
<g transform="translate(0.000000,1056.000000) scale(0.100000,-0.100000)"
fill="#000000" stroke="none">
<path d="M3210 8011 c-432 -94 -730 -458 -730 -891 0 -414 276 -769 687 -882
115 -32 325 -31 443 0 118 32 254 100 345 173 61 50 79 59 86 48 6 -8 36 -68
68 -134 106 -218 142 -363 142 -570 0 -73 -7 -169 -16 -220 -15 -87 -55 -195
-72 -195 -5 0 -31 19 -58 42 -126 104 -361 232 -539 292 -221 75 -402 106
-666 113 -218 6 -339 -3 -515 -38 -294 -59 -597 -202 -833 -392 -45 -37 -85
-67 -88 -67 -3 0 -24 13 -47 29 -96 66 -237 122 -348 141 -91 14 -263 12 -343
-5 -247 -52 -468 -210 -597 -426 -110 -183 -154 -428 -113 -627 61 -299 233
-524 498 -652 116 -56 193 -78 312 -88 166 -15 318 11 462 79 263 122 448 352
508 631 l17 77 45 7 c70 10 329 -2 412 -20 41 -9 98 -28 126 -41 129 -63 258
-247 349 -499 28 -78 75 -240 75 -259 0 -3 -45 -33 -101 -67 -55 -34 -103 -68
-105 -75 -3 -7 94 -227 216 -488 l221 -475 172 83 c464 225 949 388 1367 459
266 45 341 51 660 51 340 -1 467 -14 795 -80 396 -80 728 -198 1108 -392 92
-48 169 -84 172 -82 11 12 445 828 445 838 0 9 -159 119 -256 177 -17 10 -17
13 5 75 41 115 150 313 231 420 176 235 395 394 676 492 88 31 303 83 309 75
1 -2 9 -48 18 -104 39 -245 149 -439 331 -580 177 -139 344 -197 566 -197 365
0 667 192 825 525 223 470 -16 1048 -508 1232 -255 95 -569 64 -791 -78 -31
-20 -61 -36 -66 -36 -6 0 -38 22 -73 49 -197 154 -453 270 -726 328 -117 25
-144 27 -376 27 -268 1 -373 -10 -583 -60 -277 -65 -536 -191 -684 -331 -32
-31 -60 -54 -62 -52 -2 2 -14 54 -26 114 -127 633 -453 1232 -839 1543 -367
296 -812 448 -1477 507 -70 7 -72 7 -94 46 -107 191 -331 360 -555 420 -115
30 -293 35 -405 10z m390 -201 c121 -41 200 -89 291 -180 95 -94 146 -176 187
-298 22 -67 26 -94 26 -212 0 -118 -4 -145 -26 -212 -41 -122 -92 -204 -187
-298 -93 -92 -171 -140 -296 -182 -61 -20 -89 -23 -210 -22 -123 0 -149 3
-218 26 -109 36 -210 100 -292 183 -81 82 -126 154 -169 268 -29 78 -30 89
-30 237 0 148 1 159 30 237 91 245 280 412 528 469 91 20 282 12 366 -16z
m6270 -2450 c183 -62 323 -178 414 -342 53 -97 77 -187 83 -313 6 -141 -12
-230 -71 -350 -93 -187 -241 -312 -446 -377 -63 -19 -95 -23 -205 -22 -111 0
-141 4 -207 26 -119 40 -204 92 -294 182 -90 90 -142 175 -182 294 -22 67 -26
95 -26 212 -1 104 4 149 18 195 79 254 267 438 516 505 103 28 304 23 400 -10z
m-8768 -101 c231 -64 418 -244 496 -476 23 -69 26 -94 26 -218 0 -125 -3 -149
-27 -220 -153 -459 -688 -645 -1089 -379 -148 99 -266 272 -304 448 -23 110
-16 263 19 371 85 259 313 453 582 494 82 13 209 4 297 -20z m4163 -1249 c819
-41 1550 -235 2092 -557 l92 -54 -38 -82 c-136 -295 -195 -417 -203 -417 -5 0
-57 22 -117 50 -471 215 -950 348 -1496 417 -199 25 -753 25 -980 0 -520 -58
-993 -189 -1427 -394 -67 -32 -123 -53 -125 -48 -2 6 -55 123 -118 260 l-114
250 22 18 c38 30 376 194 507 245 524 206 1005 299 1650 320 25 1 140 -3 255
-8z"/>
</g>
</svg>
